<svg id="Layer_1" data-name="Layer 1" xmlns="http://www.w3.org/2000/svg" viewBox="0 0 1864.52 615.14"><defs><style>.cls-1{fill:#d8d8d8;}.cls-2{fill:#08c817;}.cls-3{fill:#fff;}.cls-4{fill:#4590ff;}.cls-5{fill:#4591ff;}</style></defs><title>FacebookResourceControlDemo-FullLogo</title><rect class="cls-1" x="57.57" y="57.57" width="500" height="500" rx="50.35"/><rect x="105.54" y="108.74" width="175.91" height="175.91" rx="10"/><path class="cls-2" d="M281.45,187.86V218.4C279.64,213,278,207.06,276.32,201c-4.35-15.71-9.77-35.25-17.15-35.25S246.36,185.32,242,201c-5.92,21.35-11.51,41.51-25.39,41.51S197.16,222.38,191.24,201c-4.34-15.71-9.76-35.25-17.15-35.25S161.28,185.32,156.93,201c-5.91,21.35-11.5,41.51-25.38,41.51S112.09,222.38,106.18,201c-.21-.75-.42-1.51-.64-2.28v-27c3.45,7.49,6.11,17.11,8.85,27,4.36,15.7,9.77,35.24,17.16,35.24s12.81-19.54,17.17-35.24c5.91-21.35,11.49-41.51,25.37-41.51s19.46,20.16,25.38,41.51c4.35,15.7,9.77,35.24,17.15,35.24s12.81-19.54,17.16-35.24c5.92-21.35,11.51-41.51,25.39-41.51C270.64,157.25,276.45,171,281.45,187.86Z"/><circle class="cls-3" cx="192.7" cy="416.84" r="87.42"/><circle class="cls-4" cx="218.28" cy="369.94" r="13.86"/><rect class="cls-4" x="331.82" y="375.27" width="78.8" height="57.57" rx="10"/><rect class="cls-3" x="431.06" y="375.27" width="78.8" height="57.57" rx="10"/><rect x="331.82" y="446.7" width="78.8" height="57.57" rx="10"/><rect class="cls-2" x="431.06" y="446.7" width="78.8" height="57.57" rx="10"/><rect x="438.79" y="162.18" width="68.85" height="90.77" rx="34.42" transform="translate(946.44 415.13) rotate(180)"/><path class="cls-2" d="M485.08,250.75V213.42a11.86,11.86,0,1,0-23.72,0v37.33a39.37,39.37,0,1,0,23.72,0Z"/><rect x="334.04" y="162.18" width="68.85" height="90.77" rx="34.42"/><path class="cls-4" d="M407.84,126.83a39.37,39.37,0,1,0-51.23,37.55v37.33a11.86,11.86,0,1,0,23.72,0V164.38A39.38,39.38,0,0,0,407.84,126.83Z"/><path class="cls-5" d="M615.27,192.58V61.32H700V80.64H639.27v36.75H688.4v18.94H639.27v56.25Z"/><path class="cls-5" d="M738.09,194.83q-12,0-19.69-3.84A26.59,26.59,0,0,1,707,180.77a27.14,27.14,0,0,1-3.76-14.06,25.61,25.61,0,0,1,10.13-21q10.13-8.05,30.38-8.06h23.63v-2.25q0-9.57-5.44-14.06a20.49,20.49,0,0,0-13.5-4.5,23.19,23.19,0,0,0-12.75,3.47,14.88,14.88,0,0,0-6.75,10.21H705.47a32.63,32.63,0,0,1,6.84-17.62,38.46,38.46,0,0,1,15.28-11.54,52.79,52.79,0,0,1,21-4q19.88,0,31.31,9.94t11.44,28.13v57.19H770.91l-2.25-15A34.74,34.74,0,0,1,757.13,190Q749.72,194.84,738.09,194.83Zm5.44-18.75q10.32,0,16-6.75a32.78,32.78,0,0,0,7.21-16.69H746.35q-9.57,0-13.69,3.47a10.73,10.73,0,0,0-4.13,8.53,9.81,9.81,0,0,0,4.13,8.44Q736.77,176.08,743.53,176.08Z"/><path class="cls-5" d="M855.67,194.83q-14.25,0-25.13-6.18a45.09,45.09,0,0,1-17.16-17.26,50.31,50.31,0,0,1-6.28-25.31,50.38,50.38,0,0,1,6.28-25.32,45.14,45.14,0,0,1,17.16-17.25q10.88-6.18,25.13-6.19,17.82,0,30,9.29t15.57,25.59H875.92a18.51,18.51,0,0,0-7.4-10.59,23.22,23.22,0,0,0-29.91,3.66q-6.95,7.5-6.94,20.81t6.94,20.81a22.08,22.08,0,0,0,16.87,7.51,22.69,22.69,0,0,0,13-3.75,18.18,18.18,0,0,0,7.4-10.69h25.32a42.38,42.38,0,0,1-15.57,25.31Q873.49,194.84,855.67,194.83Z"/><path class="cls-5" d="M963.68,194.83a50.87,50.87,0,0,1-24.94-6A43.4,43.4,0,0,1,921.68,172q-6.2-10.87-6.19-25.13a53.09,53.09,0,0,1,6.09-25.69,44.32,44.32,0,0,1,16.88-17.54q10.78-6.27,25.41-6.28a48,48,0,0,1,24.19,6,43.18,43.18,0,0,1,16.41,16.41,46.18,46.18,0,0,1,5.9,23.16c0,1.38,0,2.81-.09,4.31s-.16,3.07-.28,4.69H939.3q.75,10.88,7.6,17.07a23.87,23.87,0,0,0,16.59,6.18,21.83,21.83,0,0,0,12.29-3.28,20.25,20.25,0,0,0,7.4-8.53h24.38a44.17,44.17,0,0,1-8.72,16,42.87,42.87,0,0,1-15,11.35A47.45,47.45,0,0,1,963.68,194.83Zm.19-78a25.52,25.52,0,0,0-15.57,5q-6.75,5-8.62,15.09H986q-.57-9.18-6.75-14.63A22.5,22.5,0,0,0,963.87,116.83Z"/><path class="cls-5" d="M1081.63,194.83a40.68,40.68,0,0,1-18.38-3.93,33.1,33.1,0,0,1-12.75-11.07l-2.62,12.75H1026.5v-135h24v55.32A42.71,42.71,0,0,1,1062.41,102q7.41-4.68,19.22-4.69a43.66,43.66,0,0,1,23.44,6.38,45.7,45.7,0,0,1,16.32,17.44,51.86,51.86,0,0,1,6,25.13,51.31,51.31,0,0,1-6,25,45.17,45.17,0,0,1-16.32,17.25A44.12,44.12,0,0,1,1081.63,194.83Zm-5.06-21q11.43,0,18.94-7.68t7.5-19.88q0-12.2-7.5-20.07a25,25,0,0,0-18.94-7.87q-11.62,0-19,7.78t-7.41,20q0,12.19,7.41,20T1076.57,173.83Z"/><path class="cls-5" d="M1189.27,194.83a48,48,0,0,1-24.29-6.18,45.48,45.48,0,0,1-17.06-17.16q-6.29-11-6.28-25.41t6.37-25.41a46.17,46.17,0,0,1,17.16-17.16,50.36,50.36,0,0,1,48.38,0,45.51,45.51,0,0,1,17.07,17.16q6.27,11,6.28,25.41t-6.28,25.41a45.32,45.32,0,0,1-17.16,17.16A48.11,48.11,0,0,1,1189.27,194.83Zm0-20.81a22.16,22.16,0,0,0,16.31-7q6.95-7,6.94-20.91t-6.94-20.91a22.33,22.33,0,0,0-32.53,0q-6.85,7-6.85,20.91t6.85,20.91A21.87,21.87,0,0,0,1189.27,174Z"/><path class="cls-5" d="M1298.78,194.83a48,48,0,0,1-24.29-6.18,45.48,45.48,0,0,1-17.06-17.16q-6.29-11-6.28-25.41t6.37-25.41a46.17,46.17,0,0,1,17.16-17.16,50.36,50.36,0,0,1,48.38,0,45.51,45.51,0,0,1,17.07,17.16q6.27,11,6.28,25.41t-6.28,25.41A45.32,45.32,0,0,1,1323,188.65,48.11,48.11,0,0,1,1298.78,194.83Zm0-20.81a22.16,22.16,0,0,0,16.31-7q6.95-7,6.94-20.91t-6.94-20.91a22.33,22.33,0,0,0-32.53,0q-6.86,7-6.85,20.91t6.85,20.91A21.87,21.87,0,0,0,1298.78,174Z"/><path class="cls-5" d="M1363.66,192.58v-135h24v79.7l33-37.7h28.5L1411.1,142l44.26,50.63h-30l-37.69-46.69v46.69Z"/><path d="M615.27,374.16V242.9h48.19q15.75,0,26,5.34a36,36,0,0,1,15.28,14.44,42,42,0,0,1-1.21,42.1q-6.29,9.95-19.6,14.44l27.19,54.94H683.52L659.15,322.4H639.27v51.76Zm24-69.38H662q12,0,17.63-5.82t5.62-15.37q0-9.37-5.53-15T661.77,263h-22.5Z"/><path d="M767,376.41a50.76,50.76,0,0,1-24.94-6A43.42,43.42,0,0,1,725,353.53q-6.18-10.87-6.18-25.12a53.09,53.09,0,0,1,6.09-25.69,44.19,44.19,0,0,1,16.88-17.54q10.79-6.29,25.41-6.28a47.91,47.91,0,0,1,24.19,6,43.11,43.11,0,0,1,16.41,16.41,46.18,46.18,0,0,1,5.9,23.16c0,1.37,0,2.81-.09,4.31s-.16,3.07-.28,4.69h-70.7q.75,10.88,7.6,17.06a23.83,23.83,0,0,0,16.59,6.19,21.77,21.77,0,0,0,12.28-3.28,20.26,20.26,0,0,0,7.41-8.53h24.38a44.25,44.25,0,0,1-8.72,16,42.93,42.93,0,0,1-15,11.34A47.45,47.45,0,0,1,767,376.41Zm.19-78a25.59,25.59,0,0,0-15.57,5q-6.75,5-8.62,15.1h46.31q-.56-9.2-6.75-14.63A22.46,22.46,0,0,0,767.16,298.4Z"/><path d="M868.23,376.41a54.63,54.63,0,0,1-21.75-4,37.53,37.53,0,0,1-15-11.16,32.3,32.3,0,0,1-6.75-16.5h24.19A15.55,15.55,0,0,0,855,354q5,3.86,12.85,3.85t11.53-3.19a9.49,9.49,0,0,0,3.65-7.32q0-6-5.25-8.15A92.68,92.68,0,0,0,863.17,335q-6-1.32-12.19-3.19A56.08,56.08,0,0,1,839.63,327a24.76,24.76,0,0,1-8.34-7.5,19.4,19.4,0,0,1-3.19-11.35q0-12.37,9.85-20.81t27.66-8.44q16.49,0,26.34,7.69t11.72,21.19H881q-2.06-10.32-15.56-10.32-6.75,0-10.41,2.63a7.83,7.83,0,0,0-3.66,6.56q0,4.13,5.44,6.57a80.84,80.84,0,0,0,14.44,4.5q9.75,2.25,17.91,5a30.07,30.07,0,0,1,13,8.06q4.88,5.34,4.88,15.28a26.22,26.22,0,0,1-4.5,15.57,31.14,31.14,0,0,1-13.5,10.87Q880.23,376.42,868.23,376.41Z"/><path d="M968.74,376.41a47.82,47.82,0,0,1-24.28-6.19,45.41,45.41,0,0,1-17.07-17.15q-6.28-11-6.28-25.41t6.38-25.42a46,46,0,0,1,17.15-17.15,50.38,50.38,0,0,1,48.39,0,45.46,45.46,0,0,1,17.06,17.15q6.28,11,6.28,25.42t-6.28,25.41a45.22,45.22,0,0,1-17.16,17.15A48,48,0,0,1,968.74,376.41Zm0-20.81a22.2,22.2,0,0,0,16.32-7q6.93-7,6.93-20.9t-6.93-20.91a22.32,22.32,0,0,0-32.54,0q-6.84,7-6.84,20.91t6.84,20.9A21.88,21.88,0,0,0,968.74,355.6Z"/><path d="M1068.5,376.41q-17.43,0-26.91-10.88t-9.47-31.87V281.15h23.82V331.4q0,12,4.87,18.38t15.38,6.38A21.19,21.19,0,0,0,1092.6,349q6.47-7.12,6.47-19.88v-48h24v93h-21.19L1100,358.41a32.66,32.66,0,0,1-12.47,13.13A36.45,36.45,0,0,1,1068.5,376.41Z"/><path d="M1143.51,374.16v-93h21.37l2.25,17.44a39,39,0,0,1,13.79-14.35q8.71-5.34,20.53-5.34v25.32h-6.75a38.2,38.2,0,0,0-14.06,2.43,19,19,0,0,0-9.66,8.44q-3.48,6-3.47,16.69v42.38Z"/><path d="M1257.52,376.41q-14.25,0-25.13-6.19A45,45,0,0,1,1215.23,353a54.16,54.16,0,0,1,0-50.63,45,45,0,0,1,17.16-17.25q10.88-6.19,25.13-6.19,17.82,0,30,9.28t15.57,25.6h-25.32a18.56,18.56,0,0,0-7.4-10.6,23.26,23.26,0,0,0-29.91,3.66q-6.95,7.5-6.94,20.82t6.94,20.81a22.12,22.12,0,0,0,16.87,7.5,22.69,22.69,0,0,0,13-3.75,18.15,18.15,0,0,0,7.4-10.69h25.32a42.43,42.43,0,0,1-15.57,25.32Q1275.34,376.41,1257.52,376.41Z"/><path d="M1365.53,376.41a50.79,50.79,0,0,1-24.94-6,43.33,43.33,0,0,1-17.06-16.88q-6.19-10.87-6.19-25.12a53.09,53.09,0,0,1,6.09-25.69,44.19,44.19,0,0,1,16.88-17.54q10.79-6.29,25.41-6.28a47.91,47.91,0,0,1,24.19,6,43.11,43.11,0,0,1,16.41,16.41,46.07,46.07,0,0,1,5.9,23.16c0,1.37,0,2.81-.09,4.31s-.16,3.07-.28,4.69h-70.7q.75,10.88,7.6,17.06a23.83,23.83,0,0,0,16.59,6.19,21.83,21.83,0,0,0,12.29-3.28,20.31,20.31,0,0,0,7.4-8.53h24.38a44.25,44.25,0,0,1-8.72,16,42.84,42.84,0,0,1-15,11.34A47.45,47.45,0,0,1,1365.53,376.41Zm.19-78a25.61,25.61,0,0,0-15.57,5q-6.74,5-8.62,15.1h46.32q-.57-9.2-6.75-14.63A22.51,22.51,0,0,0,1365.72,298.4Z"/><path d="M674.71,557.57q-19.87,0-34.13-8.53a57,57,0,0,1-21.94-23.82q-7.7-15.27-7.69-35.34t7.69-35.45a57.46,57.46,0,0,1,21.94-24q14.25-8.62,34.13-8.62,23.63,0,38.72,11.72t18.85,32.91H705.84a28.32,28.32,0,0,0-10.41-16.79q-8-6.09-21.09-6.09-18.2,0-28.51,12.37t-10.31,33.95q0,21.56,10.31,33.84T674.34,536q13.11,0,21.09-5.71a26.46,26.46,0,0,0,10.41-15.85h26.44q-3.75,20.25-18.85,31.69T674.71,557.57Z"/><path d="M793.41,557.57a47.85,47.85,0,0,1-24.28-6.19,45.41,45.41,0,0,1-17.07-17.15q-6.28-11-6.28-25.41t6.38-25.42a46.07,46.07,0,0,1,17.16-17.15,50.36,50.36,0,0,1,48.38,0,45.46,45.46,0,0,1,17.06,17.15q6.29,11,6.28,25.42t-6.28,25.41a45.22,45.22,0,0,1-17.16,17.15A48,48,0,0,1,793.41,557.57Zm0-20.81a22.2,22.2,0,0,0,16.32-7q6.93-7,6.93-20.9t-6.93-20.91a22.32,22.32,0,0,0-32.54,0q-6.84,7-6.84,20.91t6.84,20.9A21.88,21.88,0,0,0,793.41,536.76Z"/><path d="M858.29,555.32v-93h21.19l1.88,15.75a32.64,32.64,0,0,1,12.47-13.12,36.76,36.76,0,0,1,19.22-4.88q17.25,0,26.82,10.88t9.56,31.87v52.51h-24V505.06q0-12-4.88-18.37t-15.19-6.38a21.4,21.4,0,0,0-16.59,7.13q-6.48,7.13-6.47,19.88v48Z"/><path d="M1009.62,555.32q-14.62,0-23.44-7.12t-8.81-25.32V482.37H961.43V462.31h15.94l2.81-24.94h21.19v24.94h25.13v20.06h-25.13v40.7q0,6.75,2.91,9.28t10,2.53h11.62v20.44Z"/><path d="M1043,555.32v-93h21.38l2.25,17.44a39,39,0,0,1,13.78-14.35q8.71-5.34,20.53-5.34v25.32h-6.75a38.2,38.2,0,0,0-14.06,2.43,19,19,0,0,0-9.66,8.44q-3.48,6-3.47,16.69v42.38Z"/><path d="M1156.08,557.57a47.86,47.86,0,0,1-24.29-6.19,45.32,45.32,0,0,1-17.06-17.15q-6.29-11-6.29-25.41t6.38-25.42A46.07,46.07,0,0,1,1132,466.25a50.36,50.36,0,0,1,48.38,0,45.39,45.39,0,0,1,17.06,17.15q6.28,11,6.29,25.42t-6.29,25.41a45.27,45.27,0,0,1-17.15,17.15A48,48,0,0,1,1156.08,557.57Zm0-20.81a22.18,22.18,0,0,0,16.31-7q6.93-7,6.94-20.9t-6.94-20.91a22.32,22.32,0,0,0-32.54,0q-6.84,7-6.84,20.91t6.84,20.9A21.9,21.9,0,0,0,1156.08,536.76Z"/><path d="M1221,555.32v-135h24v135Z"/><path d="M1306.46,555.32V424.06h44.82q23.07,0,38,8.15a51.47,51.47,0,0,1,22.13,22.88q7.21,14.73,7.22,34.6t-7.22,34.59a51.42,51.42,0,0,1-22.13,22.88q-14.91,8.16-38,8.16Zm24-20.63h19.69q16.5,0,26.07-5.34A30.43,30.43,0,0,0,1389.91,514q4.13-10,4.12-24.28,0-14.07-4.12-24.19a30.88,30.88,0,0,0-13.69-15.57q-9.57-5.43-26.07-5.43h-19.69Z"/><path d="M1480.29,557.57a50.79,50.79,0,0,1-24.94-6,43.33,43.33,0,0,1-17.06-16.88q-6.19-10.87-6.19-25.12a53.09,53.09,0,0,1,6.09-25.69,44.26,44.26,0,0,1,16.88-17.54q10.79-6.29,25.41-6.28a47.88,47.88,0,0,1,24.19,6,43.11,43.11,0,0,1,16.41,16.41,46.08,46.08,0,0,1,5.91,23.16c0,1.37,0,2.81-.1,4.31s-.16,3.07-.28,4.69h-70.69q.74,10.88,7.59,17.06a23.84,23.84,0,0,0,16.6,6.19,21.82,21.82,0,0,0,12.28-3.28,20.4,20.4,0,0,0,7.41-8.53h24.37a44.1,44.1,0,0,1-8.72,16,42.84,42.84,0,0,1-15,11.34A47.45,47.45,0,0,1,1480.29,557.57Zm.19-78a25.56,25.56,0,0,0-15.56,5q-6.75,5-8.63,15.1h46.32q-.57-9.19-6.75-14.63A22.51,22.51,0,0,0,1480.48,479.56Z"/><path d="M1543.11,555.32v-93h21.19l2.07,12.56a32.92,32.92,0,0,1,11.9-10.78,35.43,35.43,0,0,1,17.16-4q21.57,0,30.57,16.69a36,36,0,0,1,13.59-12.19,39.39,39.39,0,0,1,18.66-4.5q18.2,0,27.94,10.88t9.75,31.87v52.51h-24V505.06q0-12-4.59-18.37t-14.16-6.38a19.34,19.34,0,0,0-15.66,7.13q-5.91,7.13-5.91,19.88v48h-24V505.06q0-12-4.69-18.37t-14.44-6.38a19.14,19.14,0,0,0-15.47,7.13q-5.91,7.13-5.9,19.88v48Z"/><path d="M1759.32,557.57a47.85,47.85,0,0,1-24.28-6.19A45.32,45.32,0,0,1,1718,534.23q-6.29-11-6.29-25.41t6.38-25.42a46.07,46.07,0,0,1,17.16-17.15,50.36,50.36,0,0,1,48.38,0,45.39,45.39,0,0,1,17.06,17.15q6.28,11,6.28,25.42t-6.28,25.41a45.22,45.22,0,0,1-17.16,17.15A48,48,0,0,1,1759.32,557.57Zm0-20.81a22.2,22.2,0,0,0,16.32-7q6.93-7,6.94-20.9t-6.94-20.91a22.32,22.32,0,0,0-32.54,0q-6.84,7-6.84,20.91t6.84,20.9A21.89,21.89,0,0,0,1759.32,536.76Z"/></svg>